<svg width="23" height="10" viewBox="0 0 23 10" fill="none" xmlns="http://www.w3.org/2000/svg">
<path d="M22.8836 7.58099C22.8949 7.56085 22.905 7.54072 22.9151 7.51932C22.9429 7.45136 22.9607 7.3797 22.9679 7.3066C22.9679 7.28395 22.9679 7.22731 22.9792 7.13039C22.9906 7.03347 22.9868 6.95291 22.9868 6.94159C22.988 6.91895 22.988 6.89626 22.9868 6.87362C22.987 6.8315 22.9841 6.78942 22.978 6.74775C22.9586 6.63843 22.9118 6.5358 22.842 6.44944C22.7654 6.35756 22.6654 6.288 22.5526 6.24806C22.5135 6.23517 22.4736 6.22549 22.433 6.21911C22.2203 6.18386 22.1422 6.17505 22.0931 6.17128C21.9075 6.15329 21.7203 6.16433 21.5381 6.204C21.3961 6.2373 21.2622 6.29848 21.1441 6.38399C20.8937 6.20836 20.5925 6.11991 20.2869 6.13226H20.263L20.1485 6.14359C20.1827 6.09102 20.2102 6.03436 20.2303 5.97492L20.3121 5.74962L20.3197 5.72697C20.5443 5.85327 20.8091 5.88756 21.0585 5.82262C21.3421 5.75929 21.5927 5.59457 21.7634 5.35943C21.9304 5.1366 22.0169 4.86371 22.0088 4.58535C22.0046 4.39754 21.9537 4.21374 21.8607 4.05049C21.7678 3.88724 21.6357 3.74967 21.4764 3.65015L21.4638 3.6426C21.3681 3.581 21.2596 3.54185 21.1466 3.52806L21.056 3.52429C21.09 3.41478 21.134 3.27255 21.1894 3.10137C21.2612 2.87607 21.3153 2.71244 21.3505 2.60923C21.3532 2.60185 21.3553 2.59428 21.3568 2.58657C21.4059 2.42798 21.4827 2.1838 21.5997 1.86158C21.6532 1.73965 21.6741 1.60589 21.6602 1.47347C21.6463 1.34104 21.5981 1.21453 21.5204 1.10637C21.3694 0.91128 21.1365 0.820655 20.8181 0.834501C20.6922 0.843311 20.4934 0.852122 20.2202 0.860933H20.1674C20.061 0.861462 19.9563 0.886895 19.8615 0.935195C19.7167 1.00721 19.6033 1.12995 19.5431 1.28007C19.5355 1.29769 19.5242 1.32916 19.5091 1.37321L19.431 1.60481C19.3983 1.70173 19.3706 1.77725 19.3417 1.84522L19.3178 1.90689C19.1608 1.80487 18.9762 1.75387 18.7891 1.76088C18.5262 1.75993 18.2709 1.84874 18.0654 2.01262C18.0415 2.0315 18.0188 2.0529 17.9962 2.07429C17.8175 1.70144 17.5446 1.38169 17.2044 1.14665C17.0622 1.04846 16.9049 0.97406 16.7387 0.926384C16.4006 0.821556 16.0421 0.800391 15.694 0.864709C15.3964 0.915004 15.1146 1.03394 14.8709 1.2121C14.6505 1.37858 14.4613 1.58268 14.312 1.81501C14.1452 1.55156 13.9264 1.32498 13.6688 1.14917C13.5302 1.0511 13.3768 0.975887 13.2145 0.926384C12.8763 0.821606 12.5178 0.800442 12.1698 0.864709C11.8721 0.915004 11.5903 1.03394 11.3466 1.2121C11.2643 1.27548 11.1861 1.344 11.1125 1.41727C11.0623 1.30856 10.9841 1.21515 10.8859 1.14665C10.7691 1.07364 10.6347 1.03363 10.497 1.03085L10.3031 1.02078L10.1068 1.00694C9.95071 0.999387 9.83617 0.991835 9.77324 0.988059C9.65774 0.977728 9.54139 0.993141 9.43256 1.03319C9.32374 1.07324 9.22515 1.13692 9.1439 1.21965C9.13005 1.2335 9.09481 1.27252 9.04069 1.33671C9.02307 1.35811 9.00796 1.37573 8.99789 1.3858L8.9765 1.40846C8.69204 1.72816 8.51456 1.92661 8.44408 2.00381C8.41639 2.0315 8.34968 2.10199 8.24395 2.21401C8.19038 2.1475 8.12329 2.09314 8.04712 2.05452C7.97096 2.01589 7.88746 1.99389 7.80215 1.98996C7.7732 1.98996 5.36914 1.88801 4.73602 0.377602C4.69099 0.266724 4.61411 0.171678 4.51509 0.10447C4.41608 0.0372625 4.29936 0.000908428 4.17969 0C4.06091 0.000357913 3.94478 0.0351478 3.84537 0.100156C3.74596 0.165165 3.66753 0.257602 3.61958 0.366274C3.61329 0.381378 2.94115 1.87668 0.586176 1.99122C0.438004 1.99793 0.297451 2.0588 0.191187 2.16228C0.0849237 2.26576 0.0203442 2.40465 0.00970329 2.55259C-0.00162477 2.76908 -0.325104 7.94349 3.93173 9.82773C4.01105 9.86252 4.09685 9.88011 4.18347 9.87933C4.24854 9.87953 4.3132 9.86889 4.37478 9.84786C4.40373 9.83905 6.30937 9.1707 7.48748 7.00074C7.48748 7.41611 7.48748 7.54197 7.48748 7.59106C7.48748 7.92335 7.48748 8.16376 7.48748 8.30725C7.48748 8.35004 7.48748 8.43311 7.50762 8.60681C7.50701 8.61519 7.50701 8.62361 7.50762 8.63199C7.5247 8.77985 7.59019 8.91792 7.69391 9.02469C7.79308 9.1202 7.91836 9.18416 8.05389 9.20846C8.19782 9.23607 8.3441 9.24956 8.49065 9.24874H8.55736C8.70588 9.24874 8.83552 9.23992 8.95887 9.23111C9.10959 9.21705 9.25729 9.18013 9.39689 9.12161C9.48231 9.15931 9.57418 9.18025 9.66751 9.18328L10.0841 9.19084C10.1856 9.19187 10.286 9.16948 10.3774 9.12539H10.3862C10.5652 9.22321 10.763 9.28158 10.9665 9.29656C11.003 9.29656 11.0407 9.29656 11.0785 9.29656C11.2285 9.29616 11.3778 9.27412 11.5215 9.23111L11.548 9.2223C11.6294 9.19367 11.7085 9.15874 11.7846 9.11783C11.8806 9.18792 11.9945 9.22937 12.1131 9.23741L12.3258 9.25125C12.4517 9.25755 12.5373 9.26132 12.6027 9.26132H12.6367C12.8103 9.26263 12.9821 9.22612 13.1402 9.15434C13.2053 9.1786 13.2735 9.19344 13.3428 9.19839H13.5467L13.8941 9.20594L14.2982 9.21475H14.3762C14.4266 9.21475 14.4719 9.21475 14.5096 9.21475C14.6351 9.20814 14.7565 9.16769 14.8608 9.09769C15.0341 9.17019 15.2193 9.21029 15.4071 9.21601H15.441C15.5481 9.21314 15.6549 9.20347 15.7607 9.18706C15.8762 9.16894 15.9894 9.13812 16.0981 9.09518C16.169 9.06601 16.2373 9.03063 16.302 8.98945C16.3419 9.01895 16.384 9.04545 16.4278 9.06875C16.5761 9.14195 16.7384 9.1823 16.9036 9.18706H16.9275L17.1554 9.19461H17.1868C17.3486 9.19538 17.5087 9.16147 17.6563 9.09518C17.7422 9.14713 17.8393 9.17777 17.9395 9.18454C18.0339 9.19461 18.1057 9.19839 18.1535 9.19965C18.258 9.19965 18.3637 9.19965 18.4707 9.19965H18.5261C18.6632 9.25884 18.8167 9.26863 18.9603 9.22734L19.3606 9.11532C19.3999 9.10446 19.4383 9.09014 19.4751 9.07252C19.504 9.09014 19.5317 9.10902 19.5619 9.12539C19.7409 9.22321 19.9388 9.28158 20.1422 9.29656C20.1787 9.29656 20.2165 9.29656 20.253 9.29656C20.4034 9.29626 20.5531 9.27422 20.6973 9.23111L20.7237 9.2223C20.8052 9.19367 20.8843 9.15874 20.9603 9.11783C21.0563 9.18792 21.1702 9.22937 21.2888 9.23741L21.5003 9.25125C21.6262 9.25755 21.713 9.26132 21.7785 9.26132H21.8125C22.0236 9.26391 22.2316 9.21049 22.4154 9.1065C22.608 8.99527 22.765 8.83137 22.8677 8.63406C22.9705 8.43675 23.0149 8.21422 22.9956 7.99258C22.9863 7.84925 22.9482 7.70927 22.8836 7.58099V7.58099Z" fill="#007238"/>
<path d="M7.777 2.59665C7.777 2.59665 4.97141 2.5098 4.17719 0.606689C4.17719 0.606689 3.37416 2.46827 0.613884 2.59665C0.613884 2.59665 0.261455 7.53946 4.17719 9.26762C4.17719 9.27266 8.02873 7.98881 7.777 2.59665ZM5.88899 4.5413L4.15202 6.17884C4.06998 6.25561 3.96124 6.29738 3.84889 6.29527C3.73655 6.29315 3.62946 6.24732 3.55037 6.16751L2.58748 5.20462C2.5062 5.12351 2.46047 5.01342 2.46035 4.89858C2.46023 4.78375 2.50574 4.67357 2.58685 4.59228C2.66797 4.51099 2.77806 4.46526 2.8929 4.46514C3.00773 4.46503 3.11791 4.51053 3.1992 4.59165L3.86504 5.25749L5.29237 3.91197C5.33324 3.87064 5.382 3.83797 5.43575 3.81589C5.48951 3.79381 5.54716 3.78278 5.60527 3.78346C5.66338 3.78413 5.72076 3.7965 5.77399 3.81982C5.82722 3.84313 5.87521 3.87693 5.91511 3.91919C5.955 3.96145 5.98598 4.01131 6.00619 4.06579C6.02641 4.12027 6.03545 4.17827 6.03278 4.23632C6.0301 4.29437 6.01577 4.3513 5.99064 4.40369C5.9655 4.45609 5.93007 4.50289 5.88647 4.5413H5.88899Z" fill="#FFD450"/>
<path d="M9.36039 3.22597H9.33899L9.08726 3.4412C9.06809 3.45886 9.04746 3.47487 9.02558 3.48903C9.01153 3.50249 8.99281 3.51001 8.97335 3.51001C8.95388 3.51001 8.93517 3.50249 8.92111 3.48903C8.74957 3.34561 8.60212 3.17563 8.48435 2.98556C8.46222 2.96177 8.44889 2.93113 8.44659 2.89871C8.4577 2.86475 8.47821 2.83463 8.50575 2.81186L8.88335 2.41664C8.95258 2.34364 9.13509 2.14225 9.43088 1.81499C9.44934 1.79569 9.47577 1.76549 9.51017 1.72437C9.54542 1.68283 9.56681 1.65766 9.57688 1.64759C9.59651 1.62756 9.62038 1.61218 9.64674 1.6026C9.6731 1.59302 9.70127 1.58946 9.72918 1.59221L10.0892 1.61361L10.2729 1.6199L10.4668 1.63123C10.4965 1.63047 10.5262 1.63604 10.5536 1.64759C10.5734 1.66854 10.5854 1.69564 10.5876 1.72437C10.6122 1.82177 10.6216 1.92241 10.6153 2.02267C10.6153 2.08687 10.6153 2.17623 10.6153 2.28951C10.6167 2.36679 10.6141 2.44409 10.6077 2.52111C10.6077 2.53496 10.5989 2.75019 10.58 3.16555V5.01328C10.58 5.06867 10.58 5.12782 10.5876 5.1895C10.5951 5.25117 10.5964 5.32166 10.6014 5.39718C10.6065 5.4727 10.6103 5.53312 10.6153 5.57465C10.6241 5.71311 10.6291 5.83268 10.6291 5.93463C10.6291 5.9812 10.6291 6.01141 10.6153 6.02526C10.5884 6.0424 10.5563 6.04953 10.5247 6.0454H10.4353C10.3938 6.0454 10.361 6.0454 10.3384 6.0454C10.2968 6.0454 10.0149 6.05673 9.49255 6.06554H9.43843C9.41609 6.06421 9.39445 6.05728 9.3755 6.0454C9.36512 6.02891 9.36068 6.00937 9.36291 5.99002C9.36291 5.27845 9.36291 4.88112 9.36291 4.79805C9.36291 4.71875 9.36291 4.60673 9.36291 4.46199C9.36291 4.31724 9.35536 4.21025 9.35536 4.13976C9.35536 4.06928 9.35536 4.0139 9.35536 3.92201C9.35536 3.83013 9.35536 3.75587 9.35536 3.71056C9.35536 3.66524 9.36543 3.51672 9.36039 3.22597Z" fill="white"/>
<path d="M11.0294 4.61188C10.927 4.31098 10.878 3.99447 10.8847 3.67668C10.874 3.18091 10.9934 2.69099 11.2308 2.25564C11.3494 2.03536 11.5148 1.84374 11.7154 1.69427C11.8854 1.57236 12.0815 1.49177 12.2881 1.4589C12.5401 1.41433 12.7991 1.43117 13.0433 1.50799C13.1492 1.54053 13.2494 1.58936 13.3403 1.65274C13.6112 1.84322 13.8246 2.10446 13.9571 2.40794C14.0932 2.70101 14.1783 3.01515 14.2088 3.33684C14.2491 3.75229 14.2063 4.17159 14.0829 4.57034C14.004 4.85766 13.8762 5.12928 13.7053 5.37338C13.5579 5.57423 13.3555 5.72811 13.1226 5.81643C13.1128 5.81855 13.1034 5.82238 13.0949 5.82776L13.0609 5.84412C12.8149 5.95183 12.5436 5.98803 12.278 5.94859C12.1614 5.93673 12.0471 5.90877 11.9382 5.86552C11.7937 5.79831 11.665 5.70138 11.5606 5.58106C11.3142 5.30109 11.1329 4.97014 11.0294 4.61188V4.61188ZM12.9627 4.36014C13.0704 4.18985 13.128 3.9927 13.1289 3.79122C13.1373 3.48925 13.0423 3.19347 12.8595 2.95295C12.7964 2.87311 12.7073 2.81789 12.6078 2.79687C12.551 2.78545 12.4924 2.78604 12.4358 2.79861C12.3792 2.81119 12.3259 2.83546 12.2793 2.86987C12.2388 2.90076 12.2017 2.93577 12.1685 2.97434C12.0674 3.09965 12.0025 3.25027 11.981 3.40985C11.953 3.59381 11.953 3.78095 11.981 3.96492C12.0001 4.10676 12.0523 4.24213 12.1333 4.36014C12.1789 4.43319 12.2429 4.493 12.3189 4.53363C12.3949 4.57426 12.4801 4.59429 12.5662 4.59174C12.6467 4.59234 12.7259 4.57142 12.7957 4.53114C12.8654 4.49087 12.923 4.4327 12.9627 4.36266V4.36014Z" fill="white"/>
<path d="M14.5562 4.61178C14.4531 4.31103 14.4041 3.99441 14.4114 3.67658C14.4008 3.18081 14.5202 2.69089 14.7576 2.25554C14.8757 2.03497 15.0412 1.84327 15.2422 1.69417C15.4118 1.57244 15.6075 1.49186 15.8136 1.4588C16.0656 1.41438 16.3247 1.43121 16.5688 1.50789C16.6743 1.54054 16.7741 1.58937 16.8646 1.65263C17.1352 1.84345 17.3484 2.10459 17.4814 2.40784C17.6175 2.70091 17.7026 3.01505 17.7331 3.33674C17.7713 3.7526 17.7264 4.17192 17.6009 4.57024C17.522 4.85756 17.3942 5.12918 17.2233 5.37327C17.0764 5.57409 16.8744 5.72799 16.6418 5.81633C16.6319 5.81825 16.6225 5.8221 16.6141 5.82765L16.5789 5.84402C16.333 5.95186 16.0616 5.98807 15.796 5.94849C15.6798 5.93678 15.5658 5.90882 15.4574 5.86541C15.3127 5.79854 15.184 5.70156 15.0798 5.58095C14.8361 5.30032 14.6574 4.9694 14.5562 4.61178ZM16.4895 4.36004C16.596 4.18923 16.6535 3.99241 16.6557 3.79112C16.6637 3.48901 16.5682 3.19324 16.3851 2.95284C16.3235 2.8743 16.2369 2.81922 16.1396 2.79677C16.0826 2.78532 16.0238 2.7859 15.967 2.79847C15.9102 2.81104 15.8567 2.83532 15.8098 2.86977C15.7697 2.90098 15.7326 2.93597 15.6991 2.97424C15.5984 3.09968 15.534 3.25029 15.5128 3.40974C15.4848 3.59371 15.4848 3.78085 15.5128 3.96482C15.5314 4.1068 15.5836 4.24229 15.6651 4.36004C15.7105 4.43335 15.7744 4.49337 15.8504 4.53404C15.9265 4.57471 16.0119 4.59458 16.0981 4.59164C16.1773 4.59077 16.2549 4.56917 16.3231 4.52897C16.3913 4.48878 16.4478 4.4314 16.487 4.36256L16.4895 4.36004Z" fill="white"/>
<path d="M19.2183 3.01084C19.1925 3.11104 19.1423 3.20332 19.0723 3.2795C19.0022 3.35569 18.9145 3.41342 18.8168 3.4476C18.7562 3.4712 18.6915 3.48215 18.6266 3.47977C18.5616 3.47739 18.4979 3.46173 18.4392 3.43376C18.3808 3.40854 18.3282 3.37146 18.2849 3.32488C18.2416 3.2783 18.2084 3.22322 18.1875 3.16314C18.1686 3.11472 18.1613 3.06258 18.1661 3.01084C18.1717 2.91073 18.1979 2.81286 18.2432 2.72339C18.2885 2.63393 18.3518 2.5548 18.4291 2.49101C18.5325 2.40625 18.663 2.36157 18.7967 2.36514C18.8495 2.36287 18.9021 2.37308 18.9502 2.39495C18.9983 2.41682 19.0406 2.44973 19.0736 2.49101C19.1445 2.55499 19.1958 2.63785 19.2215 2.7299C19.2471 2.82195 19.246 2.91939 19.2183 3.01084V3.01084ZM20.7778 2.40794C20.7401 2.51534 20.6847 2.68527 20.6117 2.9177C20.5374 3.15056 20.4858 3.32803 20.4455 3.4476C20.4178 3.53151 20.3759 3.65738 20.3197 3.8252C20.2618 3.98883 20.219 4.10841 20.1938 4.18141C20.1527 4.31651 20.0902 4.5095 20.0062 4.7604C19.9232 5.01213 19.864 5.19338 19.8263 5.30415C19.8124 5.35953 19.7872 5.43882 19.7507 5.54329L19.6677 5.77489C19.6629 5.80087 19.6489 5.82429 19.6284 5.84091C19.6079 5.85753 19.5821 5.86625 19.5556 5.86551C19.533 5.86551 19.4059 5.85796 19.178 5.85796V5.86551H18.8457C18.7853 5.86551 18.7488 5.85545 18.735 5.83405C18.7203 5.79727 18.7203 5.75628 18.735 5.71951C18.7526 5.66413 18.7765 5.59364 18.8042 5.51938C18.8319 5.44512 18.8571 5.3633 18.8797 5.28652C18.9024 5.20975 18.9238 5.14304 18.9427 5.08262C18.9615 5.0222 19.0257 4.82207 19.1227 4.49356C19.2196 4.16505 19.2951 3.91457 19.3505 3.73836C19.3782 3.66032 19.4335 3.48662 19.5179 3.22608C19.6022 2.96553 19.6702 2.744 19.7281 2.57157C19.786 2.39913 19.8477 2.23046 19.9118 2.0681C19.9395 2.00264 19.9735 1.91328 20.0125 1.79748L20.0918 1.56211C20.1019 1.53442 20.1082 1.51428 20.1132 1.50295C20.1187 1.49059 20.1286 1.48071 20.1409 1.47526C20.1515 1.4697 20.163 1.46628 20.1749 1.46519H20.2378C20.5236 1.45638 20.7338 1.44631 20.8672 1.4375C20.9641 1.4375 21.0233 1.44505 21.0472 1.47526C21.0711 1.50547 21.066 1.56714 21.0333 1.65903C20.9133 1.99216 20.8282 2.24179 20.7778 2.40794V2.40794ZM21.1302 4.15372C21.2095 4.1993 21.2763 4.26367 21.3248 4.34115C21.3733 4.41863 21.402 4.50684 21.4084 4.59803C21.4129 4.74106 21.3685 4.88136 21.2825 4.99577C21.1986 5.11386 21.074 5.19679 20.9326 5.22863C20.8756 5.24629 20.8152 5.25049 20.7562 5.24088C20.6972 5.23127 20.6413 5.20812 20.5928 5.17324C20.5448 5.13824 20.4986 5.10085 20.4543 5.06122C20.4128 5.02308 20.381 4.97549 20.3617 4.92247C20.3424 4.86944 20.3362 4.81256 20.3436 4.75662C20.3518 4.65485 20.3814 4.55595 20.4304 4.46637C20.4794 4.3768 20.5467 4.29857 20.628 4.23679C20.6902 4.19174 20.7607 4.15942 20.8355 4.14171C20.9102 4.124 20.9877 4.12123 21.0635 4.13358C21.0868 4.13612 21.1094 4.14295 21.1302 4.15372V4.15372Z" fill="white"/>
<path d="M9.30501 7.67781L9.23326 7.73822C9.29887 7.77844 9.35753 7.82903 9.40696 7.88801C9.44933 7.94643 9.47697 8.01422 9.48752 8.08562C9.49884 8.15728 9.49103 8.23067 9.46486 8.29833C9.43719 8.3688 9.3895 8.42962 9.32766 8.47329C9.20484 8.56207 9.05969 8.61481 8.90853 8.62559C8.80531 8.63314 8.68448 8.63818 8.54603 8.64195C8.41951 8.6473 8.29281 8.63801 8.16843 8.61426C8.1513 8.61233 8.13489 8.60628 8.1206 8.59664C8.11135 8.58188 8.10614 8.56496 8.10549 8.54755C8.09416 8.43301 8.08913 8.35246 8.08913 8.30715C8.08913 8.15736 8.08913 7.9157 8.08913 7.58341C8.08913 7.52299 8.08913 7.27629 8.08913 6.84331C8.08732 6.82994 8.08732 6.81639 8.08913 6.80303C8.09036 6.79924 8.09233 6.79574 8.09492 6.79271C8.09751 6.78969 8.10068 6.78721 8.10423 6.78541C8.1171 6.78273 8.13038 6.78273 8.14325 6.78541C8.37344 6.76763 8.60478 6.77142 8.83426 6.79674C9.00153 6.81127 9.16106 6.87376 9.29368 6.97673C9.33714 7.01467 9.37375 7.0598 9.40193 7.11015C9.43382 7.17073 9.45255 7.23737 9.45689 7.3057C9.46123 7.37403 9.45108 7.4425 9.4271 7.50663C9.39917 7.5718 9.35753 7.63018 9.30501 7.67781V7.67781ZM8.61274 7.98241C8.61274 7.98241 8.61274 8.0101 8.61274 8.05415V8.11331C8.61274 8.13093 8.62029 8.141 8.63539 8.14352C8.66297 8.1504 8.69165 8.15172 8.71974 8.1474C8.74783 8.14307 8.77479 8.1332 8.79902 8.11834C8.81109 8.10981 8.82063 8.09817 8.82661 8.08465C8.8326 8.07113 8.83481 8.05624 8.83301 8.04157C8.83285 8.02753 8.82843 8.01388 8.82034 8.00242C8.81225 7.99095 8.80086 7.98222 8.78769 7.97737C8.74215 7.96646 8.69588 7.95889 8.64924 7.95472C8.62407 7.95094 8.614 7.95975 8.61274 7.98241ZM8.62029 7.37321V7.49908C8.62029 7.52551 8.63288 7.53684 8.65679 7.53558C8.69672 7.5337 8.73636 7.5278 8.77511 7.51796C8.79422 7.51411 8.81125 7.50336 8.82294 7.48775C8.83345 7.4745 8.83921 7.4581 8.8393 7.44118C8.8394 7.42112 8.83275 7.40162 8.82042 7.3858C8.80837 7.3698 8.79166 7.35793 8.77259 7.35181C8.75245 7.35181 8.71343 7.34426 8.65427 7.33797C8.63162 7.33713 8.62029 7.34888 8.62029 7.37321Z" fill="#FFD450"/>
<path d="M9.58192 7.65783V6.88753C9.57975 6.86738 9.58278 6.84701 9.59073 6.82837C9.59073 6.81956 9.61591 6.81578 9.64486 6.81578L10.0225 6.80823H10.064C10.0816 6.80598 10.0994 6.80999 10.1143 6.81956C10.1229 6.8344 10.1264 6.85162 10.1244 6.86865C10.1244 7.2324 10.1244 7.41617 10.1244 7.41994C10.1244 7.48414 10.1244 7.55588 10.1244 7.63392C10.1244 7.71196 10.1244 7.79251 10.1244 7.87558C10.1244 7.95866 10.1244 8.0304 10.1244 8.0883C10.1244 8.1097 10.1244 8.13487 10.1244 8.1613C10.1244 8.18774 10.1244 8.21669 10.1244 8.24563V8.31738C10.1244 8.35682 10.1244 8.43108 10.1244 8.54016C10.1243 8.55245 10.1213 8.56453 10.1156 8.57541C10.1156 8.5817 10.0992 8.58422 10.0804 8.58422L9.69017 8.57541C9.67922 8.57644 9.66817 8.57526 9.65769 8.57192C9.64721 8.56859 9.63751 8.56318 9.62917 8.55601C9.62083 8.54884 9.61401 8.54007 9.60914 8.53021C9.60427 8.52035 9.60143 8.50961 9.6008 8.49863C9.59108 8.43529 9.58562 8.37138 9.58444 8.30731C9.58318 8.25193 9.58192 8.03544 9.58192 7.65783Z" fill="#FFD450"/>
<path d="M11.0067 6.74651L11.1427 6.73267C11.361 6.73205 11.5717 6.81334 11.733 6.96049C11.8947 7.09186 12.0023 7.27831 12.0351 7.4841C12.0625 7.61653 12.0625 7.75316 12.0353 7.88562C12.008 8.01808 11.954 8.14357 11.8765 8.25441C11.7507 8.44262 11.5668 8.58451 11.3529 8.65844C11.2434 8.69226 11.1285 8.70507 11.0143 8.6962C10.8964 8.68683 10.7818 8.65251 10.6782 8.59551C10.5711 8.53839 10.4785 8.45743 10.4076 8.35888C10.3282 8.2518 10.2722 8.12925 10.2432 7.99917C10.2141 7.86908 10.2127 7.73435 10.2389 7.60367C10.2793 7.39138 10.3748 7.19344 10.5158 7.02972C10.6074 6.92154 10.7273 6.84093 10.862 6.79686C10.909 6.77683 10.9574 6.76001 11.0067 6.74651V6.74651ZM11.3441 7.99134C11.385 7.95367 11.4174 7.90767 11.4391 7.85644C11.4608 7.8052 11.4713 7.74992 11.4699 7.6943C11.4636 7.64773 11.4611 7.62381 11.4611 7.62003C11.4532 7.57428 11.4359 7.53065 11.4104 7.49188C11.3848 7.45312 11.3515 7.42004 11.3126 7.39473C11.2711 7.36933 11.2239 7.35475 11.1753 7.35234C11.1267 7.34992 11.0782 7.35973 11.0344 7.38089C10.9784 7.4061 10.9297 7.44504 10.8927 7.49411C10.8557 7.54317 10.8317 7.60077 10.823 7.66157C10.808 7.72035 10.8115 7.78233 10.833 7.83904C10.8547 7.89449 10.8908 7.94315 10.9375 7.98002C10.9832 8.01588 11.0366 8.04046 11.0936 8.05176C11.1371 8.06191 11.1825 8.06173 11.226 8.05124C11.2695 8.04075 11.3099 8.02024 11.3441 7.99134Z" fill="#FFD450"/>
<path d="M12.1257 8.60297C12.1257 8.59038 12.1219 8.53248 12.1144 8.42927C12.1211 8.30088 12.1249 8.2304 12.1257 8.21781C12.1246 8.21178 12.1249 8.20557 12.1268 8.1997C12.1286 8.19384 12.1318 8.18851 12.1361 8.18418C12.1405 8.17984 12.1458 8.17662 12.1516 8.17481C12.1575 8.17299 12.1637 8.17263 12.1698 8.17376H12.2075H12.2516H12.2931C12.3854 8.17983 12.4779 8.16698 12.565 8.136L12.5952 8.12215C12.6073 8.11561 12.6177 8.10645 12.6258 8.09534C12.6338 8.08423 12.6393 8.07146 12.6418 8.05796C12.6435 8.04476 12.6416 8.03134 12.6363 8.01914C12.631 8.00693 12.6224 7.99642 12.6116 7.98873C12.5724 7.95779 12.5302 7.9308 12.4857 7.90818L12.4139 7.87671C12.38 7.86287 12.356 7.85028 12.3384 7.84147C12.2725 7.80347 12.2163 7.75075 12.1742 7.68743C12.132 7.62411 12.1051 7.5519 12.0955 7.47645C12.0651 7.31809 12.0966 7.15409 12.1836 7.0183C12.2201 6.96148 12.2677 6.91259 12.3235 6.87453C12.3792 6.83647 12.4421 6.81003 12.5083 6.79677C12.629 6.77347 12.7524 6.76795 12.8746 6.78041C12.9199 6.78041 13.0156 6.79803 13.1603 6.82194L13.1842 6.82824C13.1897 6.82963 13.1945 6.83272 13.1981 6.83705C13.2016 6.84153 13.2042 6.84666 13.2056 6.85215C13.2064 6.86136 13.2064 6.87063 13.2056 6.87984C13.2056 6.89746 13.2056 6.97424 13.1943 7.1127C13.1943 7.18696 13.1943 7.23856 13.1855 7.25115C13.1869 7.26201 13.1869 7.27301 13.1855 7.28388C13.1839 7.2872 13.1816 7.29015 13.1788 7.29253C13.176 7.29492 13.1727 7.29668 13.1691 7.29772C13.1576 7.30082 13.1454 7.30082 13.1339 7.29772C13.0286 7.27838 12.9207 7.27838 12.8155 7.29772C12.7956 7.30044 12.7766 7.3072 12.7595 7.3176C12.7424 7.32799 12.7276 7.34179 12.716 7.35814C12.7083 7.36716 12.7025 7.37766 12.699 7.389C12.6955 7.40034 12.6944 7.41227 12.6957 7.42407C12.697 7.43586 12.7007 7.44726 12.7066 7.45757C12.7125 7.46788 12.7204 7.47688 12.7299 7.48401L12.8343 7.55323L12.8998 7.59477L12.9841 7.65015C13.0515 7.6933 13.1083 7.75116 13.1502 7.8194C13.192 7.88763 13.2179 7.96446 13.2258 8.04412C13.238 8.15362 13.2174 8.26428 13.1665 8.36201C13.1156 8.45973 13.0368 8.54011 12.9401 8.5929C12.8424 8.64495 12.7321 8.66891 12.6216 8.66212C12.5637 8.66212 12.4806 8.66212 12.3699 8.65205L12.1685 8.63947C12.1633 8.63999 12.158 8.63944 12.153 8.63787C12.148 8.6363 12.1433 8.63373 12.1393 8.63033C12.1353 8.62692 12.1321 8.62274 12.1297 8.61804C12.1274 8.61333 12.126 8.60821 12.1257 8.60297V8.60297Z" fill="#FFD450"/>
<path d="M13.986 7.40847C13.9743 7.40691 13.9623 7.40842 13.9513 7.41282C13.9402 7.41723 13.9305 7.4244 13.9231 7.43364C13.9137 7.46053 13.9137 7.48982 13.9231 7.51671L14.2856 7.53056C14.3082 7.52958 14.3307 7.53256 14.3523 7.53937C14.3656 7.54266 14.3776 7.54999 14.3866 7.56036C14.3956 7.57072 14.4012 7.58361 14.4026 7.59727C14.4165 7.68356 14.4165 7.77152 14.4026 7.85781C14.3971 7.88468 14.3824 7.90878 14.361 7.926C14.3397 7.94322 14.313 7.95249 14.2856 7.95221L14.1509 7.96983L14.0112 7.98746C13.9866 7.99149 13.9625 7.99824 13.9395 8.00759C13.9274 8.01395 13.9184 8.02481 13.9143 8.0378C13.9029 8.06801 13.9143 8.08186 13.942 8.08186H14.0062C14.0254 8.08037 14.0448 8.08037 14.0641 8.08186C14.2025 8.08186 14.3296 8.08186 14.4417 8.08186C14.4591 8.08283 14.4763 8.08536 14.4933 8.08941C14.5094 8.09138 14.5243 8.09884 14.5355 8.11054C14.5468 8.12223 14.5536 8.13744 14.5549 8.1536C14.5565 8.17581 14.5565 8.1981 14.5549 8.22031C14.5549 8.25429 14.5549 8.35876 14.5474 8.52994C14.5494 8.55201 14.5441 8.57413 14.5323 8.59288C14.5154 8.60689 14.4938 8.61407 14.4719 8.61302C14.4212 8.61629 14.3703 8.61629 14.3196 8.61302L13.908 8.60547L13.5581 8.59665H13.3856C13.3756 8.59787 13.3654 8.59679 13.3558 8.59349C13.3463 8.59019 13.3376 8.58476 13.3304 8.5776C13.3233 8.57045 13.3178 8.56176 13.3145 8.55219C13.3112 8.54263 13.3102 8.53244 13.3114 8.52239C13.3114 8.50603 13.3114 8.48212 13.3114 8.45191C13.3114 8.4217 13.3114 8.4003 13.3114 8.38897C13.3114 7.84648 13.3114 7.57335 13.3114 7.57209C13.3114 7.51671 13.3114 7.4563 13.3114 7.39336C13.3114 7.33043 13.3114 7.25994 13.3114 7.18442C13.3114 7.1089 13.3114 7.051 13.3114 7.00947V6.91003C13.3089 6.89756 13.3089 6.88474 13.3114 6.87227C13.3148 6.86438 13.3211 6.85808 13.329 6.85465C13.3412 6.85026 13.3539 6.8473 13.3668 6.84584H13.5921L13.8299 6.83577L14.1043 6.8257L14.3385 6.81815C14.3686 6.81583 14.3989 6.81583 14.4291 6.81815H14.4983C14.5053 6.81798 14.5122 6.81922 14.5187 6.82182C14.5252 6.82442 14.5311 6.8283 14.5361 6.83325C14.541 6.83819 14.5449 6.84409 14.5475 6.85058C14.5501 6.85707 14.5513 6.86402 14.5512 6.87101C14.5512 6.93646 14.56 6.97548 14.56 6.98681C14.56 7.13408 14.56 7.23855 14.56 7.29141C14.5621 7.31503 14.5559 7.33865 14.5424 7.35812C14.5219 7.37078 14.4984 7.37773 14.4744 7.37826C14.4156 7.38413 14.3351 7.39043 14.2327 7.39714H14.1069L13.986 7.40847Z" fill="#FFD450"/>
<path d="M15.7482 8.02404C15.7663 8.01543 15.7813 8.00134 15.791 7.98376C15.7967 7.96232 15.7967 7.93974 15.791 7.91831C15.6915 7.92838 15.6349 7.93215 15.6223 7.93215C15.5938 7.93468 15.5652 7.93468 15.5367 7.93215C15.5256 7.93151 15.5146 7.9294 15.504 7.92586C15.5007 7.92452 15.4978 7.92248 15.4954 7.91986C15.493 7.91725 15.4912 7.91414 15.4901 7.91075C15.4885 7.89949 15.4885 7.88804 15.4901 7.87677C15.4901 7.85537 15.4901 7.7874 15.4901 7.67538C15.4897 7.67204 15.4897 7.66865 15.4901 7.66531C15.4907 7.66114 15.4907 7.6569 15.4901 7.65273V7.64392C15.4901 7.61622 15.504 7.60238 15.5317 7.60238H15.937H16.156C16.169 7.60101 16.182 7.60101 16.195 7.60238C16.208 7.6026 16.2205 7.60752 16.2302 7.61622C16.239 7.62487 16.244 7.63664 16.2441 7.64895C16.2441 7.75971 16.2441 7.87299 16.2441 7.99005C16.2441 8.02529 16.2441 8.06809 16.2365 8.11592C16.2286 8.1781 16.2086 8.23812 16.1775 8.29255C16.1464 8.34697 16.1049 8.39474 16.0553 8.4331C16.002 8.4774 15.9421 8.51307 15.8778 8.53883C15.8117 8.5648 15.7429 8.58337 15.6727 8.59421C15.594 8.60713 15.5145 8.61428 15.4348 8.61561C15.2979 8.61497 15.1632 8.58175 15.0417 8.51872C14.9202 8.45568 14.8155 8.36464 14.7362 8.25311C14.6407 8.09938 14.5871 7.92328 14.581 7.74239C14.5748 7.5615 14.6161 7.38216 14.701 7.22226C14.7607 7.11312 14.8442 7.01879 14.9453 6.94625C15.0464 6.8737 15.1625 6.82479 15.285 6.80312C15.3916 6.77998 15.5009 6.77193 15.6097 6.77921C15.7965 6.79425 15.9733 6.86982 16.1132 6.99444C16.1267 7.00564 16.1368 7.02049 16.1421 7.03724C16.1435 7.0557 16.1381 7.07402 16.127 7.08884L15.9634 7.36071C15.9572 7.37315 15.9463 7.38265 15.9332 7.38715C15.9174 7.39055 15.9011 7.39055 15.8854 7.38715C15.763 7.34936 15.6331 7.34329 15.5078 7.36952C15.4002 7.3936 15.305 7.45574 15.2397 7.54448C15.2061 7.5958 15.1869 7.65522 15.1841 7.7165C15.1813 7.77779 15.195 7.8387 15.2238 7.89286C15.2526 7.94703 15.2955 7.99245 15.3479 8.02438C15.4003 8.05631 15.4603 8.07358 15.5216 8.07438C15.6003 8.07821 15.6785 8.06083 15.7482 8.02404V8.02404Z" fill="#FFD450"/>
<path d="M17.2774 7.35567V6.89122C17.2759 6.87684 17.28 6.86243 17.2888 6.85095C17.3001 6.84022 17.3148 6.83358 17.3303 6.83207C17.4446 6.82367 17.5593 6.82115 17.6739 6.82451H17.757C17.7766 6.82192 17.7965 6.8259 17.8136 6.83584C17.8224 6.84339 17.8275 6.86227 17.8287 6.89374C17.8287 6.90507 17.8287 6.92898 17.8287 6.96548C17.8287 7.00199 17.8287 7.02716 17.8287 7.03723C17.8287 7.07625 17.8287 7.14044 17.8287 7.22855C17.8287 7.31665 17.8287 7.38462 17.8287 7.43119C17.8287 7.51049 17.8287 7.60237 17.8287 7.70559C17.8278 7.79675 17.8194 7.88767 17.8036 7.97746C17.7753 8.15281 17.694 8.31531 17.5707 8.44317C17.5176 8.49448 17.4547 8.53445 17.3856 8.56063C17.3166 8.58682 17.243 8.59867 17.1692 8.59547L16.9275 8.58666C16.848 8.58517 16.7698 8.56626 16.6985 8.53127C16.6616 8.51107 16.627 8.48702 16.5952 8.45953C16.4908 8.36387 16.4135 8.24228 16.3712 8.1071C16.3196 7.95262 16.2954 7.79035 16.2995 7.62755C16.2995 7.56587 16.2995 7.50168 16.2995 7.4249V6.99569C16.2995 6.99569 16.2995 6.95542 16.3133 6.87989C16.3133 6.85598 16.3297 6.84214 16.3574 6.83836C16.4606 6.81864 16.5656 6.80936 16.6708 6.81067H16.7136H16.7601H16.8029C16.8294 6.81067 16.8445 6.82451 16.8482 6.84717C16.857 6.89248 16.8621 6.91766 16.8621 6.92143V7.45385C16.8567 7.59564 16.8707 7.73749 16.9036 7.87551C16.9238 7.93325 16.9495 7.98889 16.9804 8.04165C16.9894 8.05786 17.0028 8.0712 17.0191 8.08011C17.0353 8.08902 17.0538 8.09314 17.0723 8.092C17.0924 8.09309 17.1126 8.08932 17.131 8.08099C17.1494 8.07267 17.1655 8.06004 17.178 8.04417C17.2334 7.98351 17.2647 7.90475 17.2661 7.82264C17.2661 7.79495 17.2661 7.6502 17.2661 7.38966V7.35064L17.2774 7.35567Z" fill="#FFD450"/>
<path d="M18.599 8.16881C18.5915 8.14364 18.5839 8.12979 18.5764 8.12727C18.5577 8.1251 18.5389 8.12861 18.5223 8.13734V8.23804C18.5223 8.31356 18.5223 8.41425 18.5223 8.54264C18.5242 8.5587 18.5212 8.57497 18.5135 8.58921C18.4999 8.59874 18.4833 8.60278 18.4669 8.60054C18.37 8.60054 18.2718 8.60054 18.1761 8.60054C18.1396 8.60054 18.0855 8.60054 18.0125 8.58921C17.997 8.59002 17.9818 8.58509 17.9697 8.57536C17.9614 8.56226 17.9579 8.54671 17.9596 8.53131V8.01022C17.9596 7.99511 17.9596 7.89568 17.9596 7.71065V7.29152C17.9596 7.19586 17.9596 7.0637 17.9672 6.89377C17.9641 6.88449 17.9637 6.87454 17.966 6.86503C17.9683 6.85552 17.9731 6.84683 17.98 6.83991C17.987 6.833 17.9956 6.82814 18.0052 6.82587C18.0147 6.82361 18.0246 6.82402 18.0339 6.82707C18.2793 6.81574 18.4291 6.81196 18.482 6.81322C18.6465 6.81022 18.8101 6.83841 18.9641 6.89629C19.0583 6.93247 19.1432 6.98938 19.2125 7.0628C19.2818 7.13622 19.3337 7.22428 19.3643 7.32046C19.4066 7.45273 19.3976 7.59603 19.3391 7.72198C19.2927 7.81636 19.2179 7.89383 19.1252 7.94351C19.1154 7.94857 19.1075 7.95678 19.103 7.96683C19.0984 7.97688 19.0974 7.98817 19.1 7.99889C19.1315 8.09707 19.1793 8.25062 19.2447 8.47593C19.2536 8.50739 19.2447 8.52627 19.2145 8.53383L18.8092 8.64711C18.8042 8.64928 18.7987 8.65035 18.7931 8.65024C18.7876 8.65013 18.7821 8.64884 18.7771 8.64646C18.7721 8.64408 18.7677 8.64066 18.7641 8.63643C18.7605 8.6322 18.7579 8.62726 18.7564 8.62193L18.7148 8.50362C18.6972 8.4495 18.6834 8.40922 18.6733 8.37775C18.6632 8.34628 18.6557 8.31859 18.6406 8.27076C18.6255 8.22293 18.6091 8.19273 18.599 8.16881ZM18.56 7.34186C18.56 7.35193 18.56 7.41487 18.55 7.53066V7.55835C18.55 7.59737 18.55 7.62129 18.5638 7.6301C18.5776 7.63891 18.5953 7.64269 18.633 7.63891C18.6664 7.637 18.6985 7.62521 18.7251 7.60504C18.7518 7.58487 18.7719 7.55723 18.7828 7.52563C18.7941 7.49259 18.7941 7.45672 18.7828 7.42368C18.774 7.38995 18.7541 7.36022 18.7262 7.33935C18.696 7.3173 18.663 7.29951 18.628 7.28648C18.5965 7.28648 18.5764 7.27893 18.5676 7.28648C18.5588 7.29403 18.5625 7.31165 18.56 7.34186V7.34186Z" fill="#FFD450"/>
<path d="M20.185 6.74652L20.3209 6.73267C20.5389 6.73199 20.7492 6.81331 20.91 6.96049C21.0726 7.09133 21.1807 7.27796 21.2133 7.4841C21.2407 7.61653 21.2408 7.75316 21.2135 7.88562C21.1863 8.01808 21.1322 8.14357 21.0547 8.25441C20.929 8.44262 20.7451 8.58451 20.5311 8.65844C20.4217 8.69226 20.3068 8.70507 20.1925 8.6962C20.0747 8.68683 19.9601 8.65251 19.8565 8.59551C19.7491 8.53873 19.6565 8.45771 19.5859 8.35888C19.5062 8.25194 19.45 8.12941 19.421 7.99927C19.3919 7.86914 19.3906 7.73433 19.4172 7.60367C19.4576 7.39138 19.5531 7.19345 19.6941 7.02972C19.7853 6.92114 19.9053 6.84044 20.0402 6.79686C20.0873 6.77683 20.1357 6.76001 20.185 6.74652V6.74652ZM20.5223 7.99134C20.5633 7.95367 20.5957 7.90767 20.6174 7.85644C20.6391 7.8052 20.6496 7.74992 20.6482 7.6943C20.6482 7.64773 20.6394 7.62381 20.6394 7.62004C20.6315 7.57428 20.6142 7.53065 20.5886 7.49188C20.5631 7.45312 20.5298 7.42004 20.4909 7.39473C20.4493 7.36933 20.4021 7.35475 20.3535 7.35234C20.3049 7.34992 20.2565 7.35973 20.2127 7.38089C20.1584 7.40722 20.1116 7.44668 20.0764 7.4957C20.0412 7.54471 20.0189 7.60172 20.0113 7.66157C19.9963 7.72035 19.9998 7.78234 20.0214 7.83904C20.043 7.89449 20.0791 7.94315 20.1258 7.98002C20.1715 8.01588 20.225 8.04046 20.2819 8.05176C20.324 8.06021 20.3674 8.05917 20.4089 8.04872C20.4505 8.03826 20.4893 8.01866 20.5223 7.99134V7.99134Z" fill="#FFD450"/>
<path d="M21.3039 8.60297C21.3039 8.59038 21.3002 8.53248 21.2926 8.42927C21.2985 8.30088 21.3023 8.2304 21.3039 8.21781C21.3028 8.21178 21.3032 8.20557 21.305 8.1997C21.3068 8.19384 21.31 8.18851 21.3144 8.18418C21.3187 8.17984 21.324 8.17662 21.3299 8.17481C21.3358 8.17299 21.342 8.17263 21.348 8.17376H21.3958H21.4411H21.4827C21.5745 8.17998 21.6667 8.16712 21.7533 8.136L21.7848 8.12215C21.7968 8.11561 21.8073 8.10645 21.8153 8.09534C21.8234 8.08423 21.8289 8.07146 21.8313 8.05796C21.8331 8.04476 21.8312 8.03134 21.8259 8.01914C21.8205 8.00693 21.812 7.99642 21.8011 7.98873C21.7617 7.95809 21.7196 7.93113 21.6753 7.90818L21.6035 7.87671C21.5777 7.86632 21.5525 7.85455 21.528 7.84147C21.4624 7.80302 21.4063 7.75021 21.364 7.68699C21.3217 7.62377 21.2943 7.55179 21.2838 7.47645C21.2538 7.31793 21.2858 7.15391 21.3732 7.0183C21.4443 6.90597 21.557 6.82633 21.6866 6.79677C21.8072 6.77347 21.9306 6.76795 22.0529 6.78041C22.0982 6.78041 22.1938 6.79803 22.3373 6.82194L22.3625 6.82824C22.3679 6.82963 22.3728 6.83272 22.3763 6.83705C22.3798 6.84153 22.3824 6.84666 22.3839 6.85215C22.3839 6.85215 22.3839 6.86726 22.3839 6.87984C22.3839 6.89243 22.3776 6.97424 22.3726 7.1127C22.3726 7.18696 22.3663 7.23856 22.3637 7.25115C22.3652 7.26201 22.3652 7.27301 22.3637 7.28388C22.3621 7.2872 22.3599 7.29015 22.357 7.29253C22.3542 7.29492 22.3509 7.29668 22.3474 7.29772C22.3358 7.30082 22.3237 7.30082 22.3121 7.29772C22.2069 7.27838 22.099 7.27838 21.9937 7.29772C21.9739 7.30044 21.9548 7.3072 21.9377 7.3176C21.9206 7.32799 21.9058 7.34179 21.8943 7.35814C21.8864 7.36708 21.8804 7.37756 21.8768 7.38893C21.8732 7.40029 21.8721 7.41228 21.8734 7.42413C21.8747 7.43598 21.8784 7.44743 21.8844 7.45774C21.8904 7.46805 21.8985 7.477 21.9081 7.48401L22.0126 7.55323L22.078 7.59477L22.1624 7.65015C22.2299 7.69369 22.2866 7.75201 22.3282 7.8207C22.3699 7.88939 22.3954 7.96665 22.4028 8.04663C22.4146 8.1561 22.3939 8.26663 22.343 8.36429C22.2922 8.46195 22.2135 8.54237 22.117 8.59541C22.0193 8.64747 21.9091 8.67143 21.7986 8.66464C21.7407 8.66464 21.6576 8.66464 21.5469 8.65457L21.3455 8.64199C21.3401 8.64233 21.3348 8.64158 21.3298 8.63977C21.3247 8.63796 21.3201 8.63514 21.3162 8.63149C21.3124 8.62783 21.3093 8.62341 21.3071 8.6185C21.305 8.6136 21.3039 8.60831 21.3039 8.60297V8.60297Z" fill="#FFD450"/>
</svg>
